<svg width="30" height="29" viewBox="0 0 30 29" fill="none" xmlns="http://www.w3.org/2000/svg">
<path d="M14.5833 10.1131C13.423 10.1131 12.3102 10.5697 11.4897 11.3825C10.6693 12.1954 10.2083 13.2978 10.2083 14.4473C10.2083 15.5968 10.6693 16.6992 11.4897 17.512C12.3102 18.3248 13.423 18.7814 14.5833 18.7814C15.7436 18.7814 16.8564 18.3248 17.6769 17.512C18.4974 16.6992 18.9583 15.5968 18.9583 14.4473C18.9583 13.2978 18.4974 12.1954 17.6769 11.3825C16.8564 10.5697 15.7436 10.1131 14.5833 10.1131ZM14.5833 7.22363C16.5172 7.22363 18.3718 7.98469 19.7393 9.33939C21.1067 10.6941 21.875 12.5314 21.875 14.4473C21.875 16.3631 21.1067 18.2005 19.7393 19.5551C18.3718 20.9098 16.5172 21.6709 14.5833 21.6709C12.6494 21.6709 10.7948 20.9098 9.42733 19.5551C8.05988 18.2005 7.29166 16.3631 7.29166 14.4473C7.29166 12.5314 8.05988 10.6941 9.42733 9.33939C10.7948 7.98469 12.6494 7.22363 14.5833 7.22363ZM24.0625 6.86245C24.0625 7.34141 23.8704 7.80075 23.5285 8.13942C23.1867 8.4781 22.723 8.66836 22.2396 8.66836C21.7561 8.66836 21.2924 8.4781 20.9506 8.13942C20.6087 7.80075 20.4166 7.34141 20.4166 6.86245C20.4166 6.38349 20.6087 5.92415 20.9506 5.58548C21.2924 5.24681 21.7561 5.05654 22.2396 5.05654C22.723 5.05654 23.1867 5.24681 23.5285 5.58548C23.8704 5.92415 24.0625 6.38349 24.0625 6.86245ZM14.5833 2.88945C10.9754 2.88945 10.3862 2.89957 8.7077 2.97325C7.56436 3.0267 6.79728 3.1784 6.08562 3.4529C5.4527 3.69561 4.99624 3.986 4.51062 4.46854C4.05417 4.90542 3.70322 5.43879 3.48395 6.02884C3.20687 6.73676 3.05375 7.49524 3.00125 8.62646C2.92541 10.2214 2.91666 10.7791 2.91666 14.4473C2.91666 18.0215 2.92687 18.6052 3.00125 20.2681C3.0552 21.3993 3.20833 22.1607 3.48395 22.8642C3.73187 23.4927 4.02354 23.9449 4.5077 24.4245C4.99916 24.91 5.45562 25.2004 6.0827 25.4402C6.80312 25.7161 7.5702 25.8693 8.7077 25.9213C10.3177 25.9964 10.8806 26.0051 14.5833 26.0051C18.1912 26.0051 18.7804 25.995 20.4589 25.9213C21.5993 25.8678 22.3679 25.7161 23.0796 25.4431C23.711 25.1989 24.1704 24.9085 24.6546 24.4289C25.146 23.942 25.4391 23.4898 25.6812 22.8686C25.9583 22.1563 26.1129 21.395 26.1654 20.2681C26.2412 18.6731 26.25 18.1154 26.25 14.4473C26.25 10.873 26.2398 10.2893 26.1654 8.62646C26.1114 7.49669 25.9583 6.73387 25.6812 6.02884C25.4614 5.4394 25.1111 4.90623 24.656 4.46854C24.2152 4.01612 23.6768 3.6684 23.081 3.45145C22.3664 3.17695 21.5993 3.02526 20.4589 2.97325C18.8489 2.89812 18.286 2.88945 14.5833 2.88945ZM14.5833 0C18.5456 0 19.04 0.0144472 20.5946 0.0866835C22.1477 0.15892 23.205 0.400189 24.1354 0.758482C25.0979 1.12544 25.9087 1.62243 26.7195 2.42425C27.4611 3.14646 28.0349 4.02008 28.401 4.98431C28.7612 5.9046 29.0062 6.95347 29.0791 8.4921C29.1477 10.0322 29.1666 10.5219 29.1666 14.4473C29.1666 18.3726 29.152 18.8624 29.0791 20.4024C29.0062 21.9411 28.7612 22.9885 28.401 23.9102C28.0359 24.875 27.462 25.7488 26.7195 26.4703C25.9903 27.2047 25.1085 27.7731 24.1354 28.1361C23.2064 28.4929 22.1477 28.7356 20.5946 28.8078C19.04 28.8758 18.5456 28.8945 14.5833 28.8945C10.621 28.8945 10.1267 28.8801 8.57207 28.8078C7.01895 28.7356 5.96166 28.4929 5.03124 28.1361C4.05755 27.7741 3.17556 27.2056 2.44708 26.4703C1.70538 25.7482 1.13156 24.8745 0.765624 23.9102C0.403958 22.9899 0.160416 21.9411 0.0874998 20.4024C0.0189582 18.8624 0 18.3726 0 14.4473C0 10.5219 0.0145832 10.0322 0.0874998 8.4921C0.160416 6.95202 0.403958 5.90604 0.765624 4.98431C1.13055 4.01949 1.7045 3.14563 2.44708 2.42425C3.17577 1.68922 4.0577 1.12072 5.03124 0.758482C5.96166 0.400189 7.01749 0.15892 8.57207 0.0866835C10.1267 0.0187814 10.621 0 14.5833 0Z" fill="#B67929"/>
</svg>
