<svg width="167" height="48" viewBox="0 0 167 48" fill="none" xmlns="http://www.w3.org/2000/svg">
<path d="M149.297 0.264959C149.414 0.290912 149.597 0.290912 149.688 0.264959C149.767 0.226029 149.675 0.200075 149.454 0.200075C149.245 0.200075 149.166 0.226029 149.297 0.264959Z" fill="#B67929"/>
<path d="M143.777 1.81773C143.672 1.88109 143.646 1.94446 143.711 1.94446C143.79 1.94446 143.933 1.88109 144.038 1.81773C144.142 1.75436 144.181 1.691 144.103 1.691C144.038 1.691 143.881 1.75436 143.777 1.81773Z" fill="#B67929"/>
<path d="M142.119 3.04271C141.923 3.32043 141.897 3.68652 141.897 5.46647C141.897 7.33478 141.923 7.62513 142.171 8.15532C142.693 9.26621 144.077 9.91002 145.982 9.93527C146.883 9.96052 147.039 9.92265 147.692 9.55656C148.096 9.32933 148.527 9.17785 148.671 9.20309C149.114 9.30408 150.08 8.74864 150.289 8.28156C150.393 8.05433 150.55 7.89022 150.615 7.91547C150.863 7.97859 151.372 9.12735 151.829 10.6296C152.299 12.1949 152.403 13.1417 152.586 17.6862C152.69 20.0469 152.651 20.11 151.711 19.2895C151.059 18.7214 150.25 18.3553 149.649 18.3679C149.193 18.3679 149.193 18.3679 149.78 18.532C150.576 18.734 151.894 19.5167 152.286 20.0343C152.468 20.2489 152.808 20.8043 153.043 21.2588C153.538 22.2055 155.3 24.0486 156.096 24.4399C157.258 25.0206 159.868 24.8313 161.552 24.0486C162.322 23.6951 163.483 22.862 163.483 22.66C163.483 22.6095 162.909 22.5716 162.204 22.5842C161.03 22.5842 160.873 22.559 160.064 22.1677C158.406 21.385 156.801 19.5293 155.522 16.9414C154.23 14.3283 153.669 12.0561 153.721 9.77116C153.773 8.06696 153.826 8.01646 154.844 8.69814C155.222 8.93799 155.522 9.1021 155.522 9.03898C155.522 8.71077 152.299 4.6838 152.077 4.75954C151.999 4.78479 151.698 5.22662 151.411 5.74419C150.915 6.62785 150.863 6.67835 150.393 6.71622C149.923 6.75409 149.91 6.76671 150.106 7.03181C150.211 7.1833 150.302 7.42315 150.302 7.57463C150.302 7.8776 149.715 8.50879 149.441 8.50879C149.336 8.50879 148.971 7.95334 148.618 7.25904C148.057 6.19864 147.666 5.71894 147.483 5.89568C147.457 5.92092 147.587 6.4385 147.77 7.04444C148.122 8.18057 148.122 9.01374 147.77 9.01374C147.352 9.01374 146.857 8.02909 146.387 6.22389C146.008 4.78479 145.812 4.46919 145.356 4.46919C144.677 4.46919 144.638 4.69642 145.134 6.00929C145.643 7.37265 145.799 8.6729 145.447 8.73602C145.212 8.78651 144.964 8.18057 144.494 6.42587C143.881 4.14098 143.372 3.21945 142.928 3.58553C142.589 3.86326 142.302 3.63603 142.367 3.1437C142.393 2.90385 142.406 2.70187 142.38 2.70187C142.367 2.70187 142.25 2.85336 142.119 3.04271ZM143.15 7.04444C143.254 7.63775 143.254 7.9281 143.15 8.02909C142.954 8.21844 142.732 7.76399 142.641 6.99394C142.485 5.65582 142.915 5.6937 143.15 7.04444Z" fill="#B67929"/>
<path d="M16.4664 3.53492C16.1141 3.64863 16.0749 3.68653 16.3359 3.636C16.5578 3.58546 17.0537 3.50965 17.4452 3.45911L18.163 3.37066L17.5757 3.35803C17.2495 3.35803 16.7535 3.43384 16.4664 3.53492Z" fill="#B67929"/>
<path d="M20.4209 3.79979C20.5123 3.83813 20.6297 3.82535 20.6689 3.78701C20.7211 3.74868 20.6428 3.71034 20.4992 3.72312C20.3557 3.72312 20.3165 3.76146 20.4209 3.79979Z" fill="#B67929"/>
<path d="M15.0962 3.96372C14.9918 4.02709 14.9657 4.09045 15.0309 4.09045C15.1092 4.09045 15.2528 4.02709 15.3572 3.96372C15.4616 3.90036 15.5008 3.83699 15.4225 3.83699C15.3572 3.83699 15.2006 3.90036 15.0962 3.96372Z" fill="#B67929"/>
<path d="M21.491 4.02726C21.8042 4.12834 22.0914 4.19151 22.1175 4.16624C22.1827 4.10307 21.3475 3.83774 21.1126 3.85037C20.9951 3.85037 21.1648 3.93882 21.491 4.02726Z" fill="#B67929"/>
<path d="M22.5089 4.43105C22.6003 4.46938 22.7177 4.4566 22.7569 4.41827C22.8091 4.37993 22.7308 4.3416 22.5872 4.35438C22.4437 4.35438 22.4045 4.39271 22.5089 4.43105Z" fill="#B67929"/>
<path d="M23.4486 4.64583C23.7748 4.73423 24.1794 4.83527 24.3621 4.88579C24.5448 4.9363 24.4535 4.86053 24.1664 4.72161C23.8792 4.58268 23.4747 4.48165 23.2528 4.48165C22.9135 4.48165 22.9396 4.50691 23.4486 4.64583Z" fill="#B67929"/>
<path d="M25.1192 5.28979C25.4585 5.56751 25.5368 5.719 25.5368 6.12296C25.5368 6.5143 25.4846 6.61528 25.3019 6.61528C25.1714 6.61528 25.0017 6.55217 24.9104 6.4638C24.5188 6.08509 23.9446 7.33484 23.6444 9.24102C23.3965 10.8569 23.0963 12.2455 22.9136 12.5611C22.8092 12.763 22.7439 12.7883 22.5873 12.6621C22.2872 12.4222 22.3655 11.0462 22.757 9.55662C23.1616 8.05439 23.1094 7.81454 22.3916 7.81454C21.8304 7.81454 21.6607 8.13013 21.4128 9.61973C21.0343 11.9173 20.5906 13.1796 20.1729 13.1796C19.7162 13.1796 19.6118 12.3338 19.8989 10.9326C20.0294 10.2635 20.1207 9.67023 20.0946 9.61973C19.938 9.32939 19.4943 9.98582 18.9853 11.2734C18.3328 12.9524 18.1501 13.0913 17.4584 12.4222C17.0147 11.993 16.9494 11.6143 17.2496 11.2356C17.5367 10.8695 17.4975 10.8442 16.8711 10.8821L16.2969 10.9326L15.6182 9.91008C14.8091 8.68558 14.6133 8.63508 14.0913 9.48087C13.8955 9.82171 13.2952 10.7306 12.7732 11.5259C11.8466 12.8893 11.2332 14.0254 11.3376 14.139C11.3767 14.1643 11.703 13.9371 12.0815 13.6215C12.7601 13.0534 13.2299 12.9019 13.3343 13.2049C13.3604 13.2932 13.4388 13.9623 13.5171 14.6945C13.9086 18.6836 12.4991 23.7962 10.0978 27.1667C9.27557 28.3155 8.23151 29.237 7.1483 29.7546C6.4305 30.0954 6.13034 30.1586 5.09933 30.1964C4.42069 30.2343 3.87256 30.2974 3.87256 30.3479C3.87256 30.5373 4.72086 31.1432 5.5039 31.4967C6.76982 32.0774 7.98354 32.2793 9.73234 32.2036C12.0032 32.1026 12.6296 31.8249 13.8955 30.3227C14.9657 29.0477 15.2137 28.6437 15.5791 27.6591C16.0881 26.2578 16.8189 25.3994 18.2414 24.5662C18.9201 24.1749 20.2643 23.8719 20.9299 23.9603C22.8483 24.2128 24.806 26.2199 25.602 28.7447L25.837 29.4895L26.1241 28.7447C26.5939 27.4697 27.0507 26.8764 27.7554 26.6239C29.1388 26.119 29.713 25.8917 29.6739 25.8539C29.6086 25.7781 28.1208 26.2704 27.2725 26.6365C26.868 26.8006 26.4764 26.9395 26.3851 26.9395C26.2807 26.9395 25.602 26.3967 24.8712 25.7402C23.1224 24.1749 22.3394 23.7836 20.956 23.7836C18.9853 23.7836 17.9413 24.1623 16.8319 25.2479C16.2055 25.8791 15.8923 26.0685 15.8662 25.8286C15.827 25.5761 15.7487 24.3138 15.553 21.2462C15.3181 17.5727 15.3572 16.9541 15.9445 14.442C16.2577 13.066 16.584 12.1697 16.7667 12.1697C16.8319 12.1697 16.9755 12.3717 17.093 12.6242C17.367 13.167 18.0065 13.4573 19.0245 13.5078C19.4551 13.5331 20.0294 13.672 20.4601 13.8613C21.2953 14.2526 21.8826 14.2653 23.1355 13.9497C24.4275 13.6341 25.2236 13.2175 25.8109 12.5737C26.5417 11.7658 26.6722 11.0715 26.4634 8.9633C26.2024 6.18608 25.9805 5.56751 25.08 5.13831L24.6885 4.96157L25.1192 5.28979ZM25.6412 10.2509C25.6804 11.1472 25.5107 11.7405 25.2627 11.6017C25.1322 11.5133 25.0931 9.78384 25.2236 9.45563C25.4063 9.01379 25.602 9.37988 25.6412 10.2509Z" fill="#B67929"/>
<path d="M156.044 5.97112C156.109 6.11007 156.24 6.26166 156.318 6.31218C156.397 6.35008 156.357 6.24902 156.24 6.05954C155.979 5.68058 155.848 5.61742 156.044 5.97112Z" fill="#B67929"/>
<path d="M10.4109 10.3011C9.98022 11.1345 9.84971 11.4754 10.0455 11.2481C10.3195 10.9324 11.2331 9.0132 11.1156 9.0132C11.0895 9.0132 10.7763 9.59402 10.4109 10.3011Z" fill="#B67929"/>
<path d="M147.431 18.3427C146.413 18.6456 145.486 19.3904 144.142 21.0063C143.685 21.5617 143.529 21.5996 142.667 21.3092C142.328 21.2083 141.989 21.1451 141.91 21.1704C141.819 21.1956 142.002 21.284 142.302 21.3724C142.902 21.5365 143.385 22.0162 143.816 22.862C143.972 23.1649 144.129 23.4048 144.168 23.4048C144.22 23.4048 144.325 23.1397 144.403 22.7988C144.794 21.1704 146.06 19.3399 147.196 18.7845C147.535 18.6204 148.122 18.431 148.501 18.3679L149.193 18.2543H148.475C148.083 18.2543 147.613 18.2922 147.431 18.3427Z" fill="#B67929"/>
<path d="M166.824 23.329C166.915 23.7204 166.198 25.0332 165.545 25.6392C164.345 26.7627 161.121 27.4949 157.362 27.4949L155.235 27.5075L155.731 27.8862C156.893 28.7699 157.467 29.3758 157.649 29.8934C157.754 30.1964 157.806 30.5119 157.754 30.5877C157.584 30.8528 155.261 31.1179 152.455 31.1936C149.323 31.2694 148.122 31.1431 147.039 30.6256C146.452 30.3478 146.308 30.2216 146.282 29.9313C146.23 29.4642 146.661 29.0855 148.253 28.2144C150.367 27.053 151.242 26.2956 151.672 25.2352L151.881 24.7303L151.45 25.2352C149.767 27.255 147.927 28.0503 145.904 27.6464C144.873 27.4318 144.403 27.2803 142.993 26.6743C142.21 26.3461 141.793 26.2577 140.905 26.2073C138.961 26.1189 138.869 26.586 140.579 27.6969C141.715 28.4417 141.715 28.5174 140.67 29.2622C139.496 30.0954 139.313 30.2595 139.183 30.5877C139.052 30.8907 139.013 30.8149 138.752 29.7671C138.595 29.136 138.269 28.2649 138.034 27.8357C137.173 26.2704 135.437 24.8186 133.714 24.1875C132.475 23.7456 131.196 23.6573 125.884 23.6573H120.807L120.794 24.2506C120.794 24.5914 120.768 26.0179 120.729 27.4444C120.703 28.8709 120.677 32.9862 120.69 36.5966C120.69 40.207 120.69 43.9436 120.69 44.8904C120.69 45.8498 120.742 46.6577 120.807 46.6956C120.964 46.7839 127.581 46.8092 127.685 46.7208C127.763 46.6324 127.868 39.7904 127.855 35.7129C127.842 34.1855 127.842 32.7968 127.868 32.6201C127.881 32.4434 127.881 32.1025 127.868 31.8627C127.815 30.8023 127.855 30.2973 128.011 30.209C128.181 30.108 129.538 30.1585 130.634 30.2973C131.156 30.3731 131.287 30.4488 131.47 30.777C131.587 30.9916 131.692 31.4587 131.692 31.8122C131.705 32.3676 131.652 32.5191 131.313 32.8347C130.987 33.1503 130.778 33.2387 130.073 33.3018C129.603 33.3523 129.16 33.4533 129.081 33.5164C128.886 33.6679 128.938 39.4117 129.147 39.7904C129.225 39.9292 129.29 40.1565 129.29 40.2953C129.29 40.4342 129.395 40.674 129.525 40.8382C129.656 41.0023 129.838 41.3431 129.943 41.583C130.034 41.8228 130.243 42.3025 130.4 42.656C130.569 42.9968 130.83 43.5649 130.987 43.9183C131.13 44.2592 131.339 44.7136 131.444 44.9282C131.548 45.1302 131.783 45.6352 131.966 46.0265L132.305 46.7587L133.636 46.7839C135.646 46.8092 139.509 46.7587 139.574 46.7082C139.6 46.6829 139.457 46.2916 139.274 45.8498C139.078 45.4206 138.817 44.802 138.687 44.4864C138.569 44.1708 138.36 43.6911 138.243 43.4134C138.112 43.1357 137.838 42.5045 137.617 42.0248C137.408 41.5325 137.121 40.9139 136.977 40.6362C136.847 40.3585 136.729 40.0681 136.729 40.005C136.729 39.8914 136.586 39.5884 136.05 38.528C135.998 38.4018 135.946 38.1619 135.946 37.9978C135.946 37.8211 135.881 37.6444 135.803 37.5939C135.711 37.5434 136.024 37.1647 136.586 36.6092C137.095 36.1169 137.708 35.3973 137.943 35.006C138.413 34.2612 138.948 32.5822 138.948 31.8879C138.948 31.4713 139.196 31.3072 139.222 31.6986C139.3 32.658 139.522 34.8166 139.914 38.4901C139.94 38.6921 140.018 38.8815 140.096 38.9067C140.318 38.9698 140.984 37.8842 141.506 36.584C141.754 35.9401 142.041 35.3847 142.132 35.3595C142.223 35.3216 142.641 35.3216 143.072 35.3468C145.029 35.4604 146.008 35.5236 146.909 35.5993C148.109 35.6877 149.636 35.4983 151.594 35.0186C154.648 34.2486 157.676 32.6959 160.808 30.2847C161.46 29.7798 162.426 29.0855 162.974 28.732C164.984 27.4318 166.119 26.1694 166.694 24.5914C167.033 23.6446 167.085 23.2154 166.876 23.0892C166.785 23.0387 166.759 23.1144 166.824 23.329Z" fill="#B67929"/>
<path d="M36.5647 23.3291C35.2205 23.5437 34.2808 23.8972 33.1585 24.6041C32.6625 24.9197 32.1797 25.1722 32.1013 25.1722C32.01 25.1722 31.9317 25.2227 31.9317 25.2858C31.9317 25.3489 31.6185 25.816 31.2269 26.3209C30.3134 27.4823 29.7392 28.8331 29.4912 30.3479C29.3868 31.0043 29.2693 31.6734 29.2432 31.8123C29.2041 32.0142 29.0344 32.1279 28.6429 32.2288C28.3297 32.3046 27.8468 32.5066 27.5597 32.6833C25.3411 33.9962 23.5792 34.4885 21.8957 34.2613C20.4862 34.0719 19.3377 33.4281 18.0457 32.1152C17.6281 31.6986 17.2626 31.3704 17.2235 31.3957C17.1974 31.4336 17.3801 31.7996 17.6411 32.2162C17.9413 32.7212 18.372 33.1883 18.8548 33.5417C19.664 34.1477 21.6216 35.1323 22.5221 35.41C22.8353 35.4984 23.3573 35.814 23.6967 36.1043C24.2448 36.584 24.2839 36.6598 24.1665 36.9754C23.9968 37.4424 22.757 38.061 21.3214 38.4019C19.5726 38.8184 17.8108 38.9699 14.6133 38.9825C10.9722 38.9825 11.0244 39.0078 11.3768 37.8464C11.5725 37.1773 11.7291 36.9754 12.7862 35.9781L13.9869 34.8546L13.4649 34.9429C13.1778 34.9934 12.5644 35.0944 12.0945 35.1702C10.7112 35.3974 6.35222 35.3595 5.03409 35.1071C2.67191 34.6526 1.90191 34.2486 0.910057 32.9484C0.166165 31.9637 0.166165 31.9764 0.283622 32.4939C0.44023 33.2261 0.988362 34.0845 1.88886 34.9556C2.81547 35.8771 3.66377 36.4578 5.24291 37.291C5.81714 37.5939 7.01781 38.2882 7.91831 38.8437C11.6247 41.1286 14.9266 42.4793 18.1631 43.0348C18.8157 43.1358 19.5987 43.2872 19.925 43.3504C20.956 43.565 23.279 43.5145 24.6885 43.2494C26.3199 42.9338 29.0605 42.5551 29.1519 42.6308C29.178 42.6687 29.2302 43.5776 29.2432 44.6632C29.2693 45.7489 29.3215 46.6704 29.3737 46.7209C29.4259 46.7714 30.9398 46.8219 32.7408 46.8219C35.351 46.8345 36.0427 46.7966 36.1862 46.6578C36.382 46.481 36.395 46.1402 36.395 40.8887C36.395 39.3613 36.4472 38.0231 36.5125 37.8969C36.5908 37.7454 36.5908 37.6697 36.5125 37.6697C36.2906 37.6697 36.3428 31.8501 36.5647 30.8529C36.891 29.3506 37.9611 28.8962 39.5142 29.5905C39.8926 29.7546 40.4799 30.6509 40.3494 30.8529C40.2972 30.9286 40.3233 31.0675 40.4147 31.1685C40.5321 31.2947 40.493 31.484 40.2711 31.9764C39.9448 32.7212 39.475 33.0494 38.5615 33.1756C38.0916 33.2514 37.9481 33.3271 37.8959 33.5417C37.8567 33.6932 37.8176 34.842 37.8176 36.0791C37.8045 37.3288 37.7393 38.4145 37.674 38.4902C37.2564 38.9825 39.7621 39.1845 41.0672 38.7679C41.4587 38.6417 41.8894 38.566 42.0069 38.6038C42.1374 38.6291 42.2809 38.6038 42.3201 38.5407C42.3592 38.4776 42.4767 38.4271 42.5941 38.4271C42.6986 38.4271 42.9726 38.3009 43.1945 38.1368C43.4294 37.9853 43.8209 37.758 44.0689 37.6192C44.3168 37.4929 44.5779 37.3036 44.6301 37.2152C44.6823 37.1142 44.8258 37.0385 44.9172 37.0385C45.0216 37.0385 45.1129 36.9627 45.1129 36.8618C45.1129 36.7608 45.4131 36.3442 45.7655 35.9528C46.1309 35.5615 46.418 35.1576 46.418 35.0566C46.418 34.9556 46.5485 34.6147 46.7051 34.2865C47.0314 33.6048 47.0184 33.6553 47.1358 32.3046C47.5143 28.2397 44.6431 24.3643 40.6104 23.468C39.3967 23.2029 37.7393 23.1398 36.5647 23.3291Z" fill="#B67929"/>
<path d="M59.4688 23.2783C56.4801 23.5687 53.5046 25.0962 51.5339 27.3558C50.5943 28.4288 50.0331 29.2115 49.6677 29.9689C49.2239 30.9157 48.7672 32.1402 48.7672 32.4305C48.7672 32.5947 48.7149 32.7588 48.6497 32.8093C48.5714 32.8471 48.5192 32.9734 48.5192 33.0996C48.5192 33.7434 48.3234 35.1068 48.219 35.233C48.1407 35.3214 48.1538 35.4097 48.2451 35.4602C48.3234 35.5107 48.3756 35.7001 48.3626 35.8768C48.3365 36.0662 48.3495 36.2808 48.4017 36.3439C48.4409 36.4196 48.48 36.6974 48.4931 36.9751C48.5061 37.6189 48.5583 37.8966 48.7541 38.3384C48.8324 38.5404 48.8977 38.7677 48.8977 38.856C48.8977 38.9444 49.0151 39.2474 49.1587 39.5377C49.3022 39.8154 49.4197 40.131 49.4197 40.2194C49.4197 40.3078 49.5371 40.5224 49.6807 40.6991C49.8243 40.8758 49.9417 41.1157 49.9417 41.2293C49.9417 41.3555 49.9939 41.4565 50.0722 41.4565C50.268 41.4565 50.8553 42.4285 50.777 42.6305C50.7378 42.7441 50.8161 42.8451 51.0119 42.883C51.1815 42.9335 51.5209 43.2112 51.7688 43.5142C52.4997 44.3978 55.149 46.1525 56.2844 46.506C56.5715 46.5944 57.0283 46.7332 57.3154 46.8216C58.5944 47.2256 61.6482 47.3897 62.9925 47.1372C64.7674 46.809 66.4901 46.1147 68.0823 45.1048C69.2307 44.36 70.6794 42.9082 71.3188 41.8352C71.5015 41.5196 71.7104 41.2293 71.7756 41.1914C71.9192 41.0904 72.0888 40.6865 72.5978 39.2474C72.7936 38.6919 72.9893 38.1491 73.0546 38.0355C73.3156 37.4927 73.4331 35.5865 73.2765 34.1979C73.0546 32.0266 72.1802 29.7796 70.9534 28.1763C70.1965 27.1791 68.9175 25.9924 67.8865 25.3234C67.3906 24.9952 66.9338 24.6922 66.8946 24.6291C66.7902 24.5028 65.0675 23.859 63.9713 23.5561C62.9142 23.2657 60.9043 23.1395 59.4688 23.2783ZM62.7967 30.1583C63.4753 30.436 64.6891 31.206 64.6891 31.3701C64.6891 31.4459 64.8718 31.6479 65.0806 31.8246C65.9419 32.5189 66.464 34.0969 66.3465 35.637C66.2551 36.6721 66.0463 37.3917 65.694 37.7704C65.5765 37.8966 65.4721 38.0607 65.4721 38.1365C65.4721 38.4016 64.4019 39.4241 63.7364 39.7902C62.862 40.2699 61.5047 40.5981 60.6955 40.5224C58.9859 40.3709 58.3855 40.1436 57.3415 39.26C57.1327 39.0832 56.9239 38.9318 56.8847 38.9065C56.7412 38.8434 56.2061 38.0733 56.2061 37.9219C56.2061 37.8587 56.1539 37.7956 56.0756 37.7956C56.0103 37.7956 55.9451 37.7199 55.9451 37.6315C55.9451 37.5558 55.8537 37.3159 55.7493 37.1139C55.149 36.0031 55.3708 33.3142 56.1408 32.4937C56.2452 32.38 56.3366 32.2286 56.3366 32.1528C56.3366 32.0897 56.6629 31.7362 57.0544 31.3701C57.7852 30.7011 58.8423 30.1583 59.795 29.9689C60.5389 29.8048 62.1833 29.9184 62.7967 30.1583Z" fill="#B67929"/>
<path d="M76.0823 23.632L75.5472 23.6699L75.495 24.6419C75.4689 25.1721 75.4558 29.0224 75.4689 33.1882C75.4689 40.9518 75.508 41.5325 76.0039 43.0347C76.4868 44.4359 77.7658 45.9003 79.0578 46.5062C81.9159 47.8443 85.1525 47.4025 87.1623 45.408C88.1542 44.4107 88.3108 44.234 88.3108 44.1077C88.3108 44.032 88.4022 43.9815 88.5066 43.9815C88.611 43.9815 88.7023 44.0572 88.7023 44.1582C88.7023 44.2466 89.1591 44.7515 89.7072 45.2817C90.5425 46.077 90.9079 46.3295 91.8215 46.7208C92.9047 47.1753 92.996 47.2005 94.4447 47.1879C96.1282 47.1879 96.8329 47.0238 98.1902 46.2916C99.7694 45.4458 100.957 43.6659 101.296 41.6587C101.453 40.6867 101.479 39.6894 101.518 33.1251C101.531 29.8176 101.466 23.9855 101.401 23.834C101.349 23.6825 100.8 23.6573 98.0858 23.6573H94.8362V26.586C94.8231 28.2018 94.8231 31.5976 94.8362 34.135C94.8362 39.4622 94.7579 40.2196 94.1184 40.5857C93.2179 41.1285 92.1869 40.7246 91.965 39.7525C91.8606 39.3359 91.8345 36.584 91.8215 24.705C91.8215 24.2001 91.7562 23.7582 91.6909 23.7078C91.5474 23.632 85.3091 23.6194 85.2178 23.6951C85.1786 23.7456 85.0351 28.5679 85.0481 29.3379C85.1134 32.5191 85.0351 39.3864 84.9176 39.803C84.7088 40.5731 84.3956 40.8255 83.6256 40.8255C82.7642 40.8255 82.177 40.3332 82.177 39.601C82.1639 39.3359 82.1508 35.6624 82.1247 31.4461C82.0986 27.2172 82.0464 23.7456 82.0073 23.7078C81.942 23.632 76.9175 23.5689 76.0823 23.632Z" fill="#B67929"/>
<path d="M110.615 23.7835C108.213 24.0864 106.321 25.1721 105.238 26.9015C104.298 28.3911 104.22 29.0728 104.207 36.281C104.207 41.1285 104.22 41.2926 104.507 42.151C105.042 43.7795 106.073 44.9409 107.796 45.875C109.14 46.5946 110.393 46.7713 114.386 46.7713C116.135 46.7839 117.584 46.7587 117.61 46.7334C117.714 46.6451 117.701 40.207 117.61 40.0681C117.545 39.9797 117.362 39.9419 117.101 39.9924C116.879 40.0428 116.605 40.0681 116.5 40.0681C116.396 40.0681 115.43 40.0681 114.347 40.0681C111.946 40.0681 111.567 39.9924 111.28 39.5C111.084 39.1466 111.071 39.0077 111.124 38.3891C111.137 38.2629 111.345 38.0862 111.619 37.9726C112.102 37.7706 112.363 37.7706 115.626 37.8337C116.553 37.8589 117.336 37.8211 117.375 37.758C117.466 37.6191 117.44 32.7337 117.362 32.658C117.323 32.6201 116.37 32.5696 115.235 32.557C112.925 32.5065 112.311 32.456 112.076 32.3171C111.815 32.153 111.659 31.6102 111.75 31.1431C111.881 30.4488 112.298 30.3478 115.169 30.2973L117.61 30.2595L117.649 28.3785C117.675 27.3434 117.649 25.8538 117.61 25.0711L117.518 23.6572L114.438 23.6699C112.729 23.6825 111.019 23.733 110.615 23.7835Z" fill="#B67929"/>
<path d="M1.66687 24.679C1.57552 24.9571 1.52332 25.2225 1.56247 25.2478C1.58857 25.2731 1.67993 25.0708 1.77128 24.7801C1.86264 24.502 1.91484 24.2366 1.87569 24.2113C1.84959 24.186 1.75823 24.3883 1.66687 24.679Z" fill="#B67929"/>
<path d="M1.40602 25.6264C1.40602 25.7654 1.4454 25.8033 1.48479 25.7022C1.52418 25.6138 1.51105 25.5001 1.47166 25.4622C1.43228 25.4116 1.39289 25.4874 1.40602 25.6264Z" fill="#B67929"/>
<path d="M1.28833 26.1817C1.28833 26.3587 1.31459 26.422 1.35398 26.3334C1.38024 26.2575 1.38024 26.1058 1.35398 26.0172C1.31459 25.9413 1.28833 26.0046 1.28833 26.1817Z" fill="#B67929"/>
<path d="M1.01443 27.5954C0.923077 28.1509 0.740368 28.959 0.609861 29.3883C0.466304 29.805 0.374949 30.1712 0.401051 30.1964C0.427152 30.2217 0.570709 29.8807 0.714267 29.4388C1.00138 28.6055 1.3407 26.7241 1.23629 26.6231C1.21019 26.5852 1.10579 27.0272 1.01443 27.5954Z" fill="#B67929"/>
<path d="M0.10083 30.8016C-0.00357641 31.0668 -0.0296781 31.3953 0.0355761 31.6479C0.126932 32.0142 0.153034 31.9637 0.231339 31.2311C0.283542 30.7763 0.309644 30.3973 0.296593 30.3847C0.283542 30.3721 0.192186 30.5489 0.10083 30.8016Z" fill="#B67929"/>
<path d="M47.5924 37.543C47.5924 37.6065 47.6838 37.6319 47.7882 37.5938C47.8926 37.543 47.9839 37.4921 47.9839 37.4667C47.9839 37.4413 47.8926 37.4159 47.7882 37.4159C47.6838 37.4159 47.5924 37.4667 47.5924 37.543Z" fill="#B67929"/>
<path d="M113.825 38.9315C113.786 38.9949 113.799 39.0583 113.877 39.0583C113.942 39.0583 114.047 38.9949 114.086 38.9315C114.125 38.8555 114.112 38.8048 114.034 38.8048C113.969 38.8048 113.864 38.8555 113.825 38.9315Z" fill="#B67929"/>
</svg>
