<svg width="54" height="54" viewBox="0 0 54 54" fill="none" xmlns="http://www.w3.org/2000/svg">
<path d="M48.6188 47.0066C45.8605 48.671 42.8872 49.9194 39.6977 50.7516C36.5083 51.5839 33.0306 52 29.2661 52C25.5009 52 21.964 51.4593 18.6546 50.3789C15.3451 49.2976 12.4549 47.7036 9.98555 45.5962C7.51552 43.4884 5.56675 40.8893 4.14025 37.7979C2.71308 34.7065 2 31.14 2 27.0974C2 23.4225 2.69546 20.0449 4.08639 16.9644C5.47699 13.8839 7.36558 11.2361 9.75184 9.02004C12.1378 6.80427 14.9136 5.08016 18.0791 3.84804C21.2446 2.61622 24.6136 2 28.187 2C30.2734 2 32.3056 2.18949 34.2839 2.56752C36.2626 2.94618 38.1329 3.50777 39.8955 4.25385C41.6581 4.99962 43.2824 5.93988 44.7698 7.07492C46.2564 8.20996 47.5333 9.5448 48.6008 11.0794C49.6673 12.6147 50.5007 14.3438 51.1004 16.2677C51.6998 18.1922 52 20.3102 52 22.6231C52 25.0012 51.6636 27.1464 50.993 29.0594C50.3212 30.9723 49.4103 32.605 48.2591 33.9557C47.1081 35.3068 45.7711 36.3501 44.2482 37.0849C42.7253 37.8201 41.1129 38.1872 39.4102 38.1872C38.1628 38.1872 37.12 38.0089 36.2809 37.6524C35.4412 37.2956 34.7879 36.793 34.3205 36.1443C33.8528 35.496 33.5589 34.7177 33.4389 33.8096C33.3185 32.9019 33.3674 31.7075 33.5356 30.6046C32.3126 33.0907 30.771 35.1014 28.9606 36.2577C27.1494 37.4142 25.1654 37.9924 23.0072 37.9924C21.736 37.9924 20.6449 37.7929 19.7337 37.3927C18.8221 36.9928 18.0609 36.4521 17.4495 35.7713C16.8378 35.0905 16.3883 34.2913 16.1005 33.372C15.8126 32.4536 15.6686 31.4643 15.6686 30.4051C15.6686 29.1945 15.8421 27.968 16.1902 26.7247C16.5376 25.4819 17.0472 24.2929 17.7191 23.1578C18.3903 22.0228 19.2174 20.9586 20.2011 19.964C21.1841 18.9698 22.2991 18.1107 23.5464 17.3862C24.7931 16.6622 26.1724 16.0891 27.6833 15.6677C29.1939 15.2462 30.8246 15.0352 32.5755 15.0352C33.5589 15.0352 34.5599 15.1164 35.5791 15.2784C36.5984 15.4404 37.4677 15.6836 38.1868 16.0079L33.5356 30.6046" stroke="white" stroke-width="3" stroke-miterlimit="1" stroke-linecap="round" stroke-linejoin="round"/>
</svg>
