<svg width="75" height="75" viewBox="0 0 75 75" fill="none" xmlns="http://www.w3.org/2000/svg">
<path d="M61.5081 4.89288L60.0022 6.28478L55.9728 1.92545C53.9434 -0.270144 50.5046 -0.405409 48.309 1.62399L45.628 4.10206L44.2794 2.64302C42.25 0.447421 38.8112 0.312156 36.6156 2.34155L33.6591 5.07427C31.4635 7.10368 31.3283 10.5425 33.3577 12.7381L42.4021 22.5231L22.191 41.2043L13.1466 31.4193C11.1172 29.2237 7.67838 29.0884 5.48279 31.1178L2.52628 33.8505C0.330682 35.8799 0.195414 39.3187 2.22481 41.5143L4.73147 44.2262L2.0514 46.7035C-0.144198 48.7329 -0.279466 52.1716 1.74994 54.3672L5.11322 58.0059L3.60638 59.3987C1.48395 61.3588 1.40865 64.7421 3.43805 66.9377L6.14219 69.8633C8.17159 72.0589 11.5504 72.2496 13.672 70.2886L15.1779 68.8967L19.2072 73.256C21.2366 75.4516 24.6754 75.5869 26.871 73.5575L29.5511 71.0803L30.8997 72.5393C32.9291 74.7349 36.3679 74.8702 38.5635 72.8408L41.52 70.1081C43.7156 68.0787 43.8508 64.6399 41.8214 62.4443L32.2851 52.127L52.4962 33.4457L62.0325 43.7631C64.0619 45.9587 67.5007 46.0939 69.6963 44.0645L72.6528 41.3318C74.8484 39.3024 74.9837 35.8636 72.9543 33.668L70.4476 30.9561L73.1286 28.478C75.3242 26.4486 75.4595 23.0098 73.4301 20.8142L70.0677 17.1765L71.5736 15.7846C73.6961 13.8227 73.7704 10.4402 71.741 8.24465L69.0369 5.31906C67.0094 3.12173 63.6306 2.93103 61.5081 4.89288ZM11.5066 67.9459C10.6763 68.7133 9.32075 68.6022 8.48491 67.6979L5.78077 64.7723C4.94493 63.868 4.94064 62.5079 5.7709 61.7405L7.2768 60.3486L13.0125 66.554L11.5066 67.9459ZM24.7066 71.2139C23.8023 72.0498 22.3867 71.9941 21.5509 71.0898L4.09179 52.2009C3.25595 51.2966 3.31163 49.8811 4.21592 49.0452L6.89599 46.568L27.3857 68.7358L24.7057 71.213L24.7066 71.2139ZM39.4796 64.6088C40.3155 65.5131 40.2598 66.9287 39.3555 67.7645L36.399 70.4972C35.4947 71.3331 34.0792 71.2774 33.2433 70.3731L4.56753 39.3489C3.73169 38.4446 3.78738 37.0291 4.69166 36.1933L7.64817 33.4605C8.55246 32.6247 9.96801 32.6804 10.8038 33.5847L39.4796 64.6088ZM30.1206 49.7834L24.3563 43.5471L44.5674 24.8658L50.3317 31.1021L30.1206 49.7834ZM70.6125 35.8326C71.4483 36.7368 71.3926 38.1524 70.4884 38.9882L67.5319 41.7209C66.6276 42.5568 65.212 42.5011 64.3762 41.5968L35.7004 10.5727C34.8645 9.66838 34.9202 8.25283 35.8245 7.41699L38.781 4.68427C39.6853 3.84843 41.1009 3.90412 41.9367 4.8084L70.6125 35.8326ZM71.0883 22.9788C71.9241 23.8831 71.8685 25.2986 70.9642 26.1344L68.2832 28.6125L47.7934 6.44478L50.4744 3.96671C51.3787 3.13087 52.7942 3.18655 53.6301 4.09084L71.0883 22.9788ZM69.4002 10.4083C70.236 11.3126 70.2403 12.6727 69.4101 13.4401L67.9042 14.832L62.1685 8.62663L63.6744 7.23473C64.5046 6.46732 65.8602 6.57843 66.696 7.48272L69.4002 10.4083Z" fill="white"/>
</svg>
