<svg width="60" height="60" viewBox="0 0 60 60" fill="none" xmlns="http://www.w3.org/2000/svg">
<path d="M57.9463 43.4151L50.4737 35.8808C49.2386 34.6457 47.5711 33.9046 46.0272 33.9046C44.3598 33.9046 42.8776 34.5839 41.5807 35.8808L37.2577 40.2038C37.0725 40.0803 36.8254 39.9568 36.6402 39.895C36.6402 39.895 36.5784 39.895 36.5784 39.8332L36.5166 39.7715C35.9608 39.4009 35.3433 39.0304 34.6022 38.7216C30.835 36.3749 27.3149 33.1017 23.733 28.717C22.0655 26.6173 20.8921 24.7645 19.9658 22.7266C20.9539 21.9237 21.695 21.1209 22.2508 20.5033L24.1653 18.5888C25.6474 17.2302 26.3885 15.6863 26.3885 14.0806C26.3885 12.4132 25.6474 10.8692 24.227 9.38706L18.3601 3.52015C17.8043 2.96433 17.2485 2.40852 16.6309 1.85271C15.3958 0.679327 13.8518 0 12.2462 0C10.4552 0 8.97305 0.617569 7.61439 1.97622L3.10614 6.48448C1.31518 8.15192 0.265315 10.2517 0.0182873 12.8454V12.9072C-0.105227 16.1186 0.388826 19.0829 1.74748 22.7883C3.90897 28.5935 7.18209 34.0281 12.0609 40.0185C18.4219 47.1823 25.5857 52.7404 33.5523 56.5694L33.7376 56.6311C36.0844 57.681 40.5308 59.6572 45.4714 59.966H46.1507C49.4238 59.966 51.8941 58.9161 53.9321 56.6929C54.6732 55.8283 55.476 55.0255 56.1554 54.2844C56.7112 53.8521 57.0817 53.4198 57.4523 52.9875L57.9463 52.4934L58.0698 52.3699C60.6636 49.5291 60.6636 46.0707 57.9463 43.4151ZM55.7848 50.2702L55.1673 50.8877L55.1055 51.0112C54.7967 51.3818 54.5497 51.6906 54.2409 51.9376L54.0556 52.1229C53.3145 52.864 52.4499 53.7286 51.5853 54.7167C50.1649 56.2606 48.5592 56.9399 46.1507 56.9399H45.6567C41.3337 56.6311 37.3812 54.9019 35.0345 53.8521L34.911 53.7903C27.3149 50.1467 20.4598 44.8356 14.4694 38.0423C9.77588 32.3606 6.68804 27.1731 4.65006 21.7384C3.41492 18.3418 2.98262 15.8715 3.10614 13.0925C3.29141 11.3015 3.97073 9.88111 5.20587 8.76949L9.77589 4.19947C10.517 3.45839 11.2581 3.14961 12.1844 3.14961C12.9872 3.14961 13.7283 3.52015 14.4077 4.13772L14.4694 4.19947C15.0252 4.69353 15.581 5.24934 16.1369 5.80515L22.0038 11.6721C23.1154 12.7837 23.3007 13.6483 23.3007 14.1423C23.3007 14.6364 23.1771 15.3775 22.0038 16.4274L20.0275 18.4036C19.3482 19.1447 18.5454 19.9475 17.4955 20.8121L17.372 20.9356L17.2485 21.1209C16.6927 21.862 16.6309 22.5413 16.9397 23.5294L17.0014 23.7764L17.0632 24.0235C18.1131 26.3085 19.41 28.4082 21.2627 30.755C25.0916 35.4485 28.9205 38.9686 32.9965 41.5007L33.1818 41.6242C33.6758 41.8712 34.1699 42.1182 34.6022 42.3653C34.7875 42.5505 35.0345 42.6741 35.2197 42.7358C35.4668 42.8593 35.6521 42.9211 35.7756 43.0446L36.2079 43.3534H36.3314L36.5166 43.4151C36.8872 43.5387 37.1342 43.5387 37.3195 43.5387C37.9371 43.5387 38.4929 43.2916 39.0487 42.7358L43.6805 38.104C44.4215 37.363 45.1009 37.0542 45.9655 37.0542C46.8918 37.0542 47.7564 37.61 48.2505 38.104L55.7848 45.6384C57.267 47.1206 57.3287 48.6645 55.7848 50.2702Z" fill="white"/>
</svg>
