<svg width="51" height="60" viewBox="0 0 51 60" fill="none" xmlns="http://www.w3.org/2000/svg">
<path d="M25.3132 59.9792C24.8882 59.9812 24.4671 59.8994 24.0738 59.7385C23.6805 59.5777 23.3227 59.3409 23.021 59.0417L7.60848 43.6292C5.175 41.2092 3.24873 38.328 1.94241 35.1543C0.636081 31.9807 -0.0240445 28.5783 0.000669103 25.1464C-0.00981256 21.8237 0.642731 18.5322 1.92009 15.4648C3.19745 12.3973 5.07396 9.61557 7.43973 7.28235C12.2178 2.61377 18.6329 0 25.3132 0C31.9934 0 38.4085 2.61377 43.1866 7.28235C45.5524 9.61557 47.4289 12.3973 48.7062 15.4648C49.9836 18.5322 50.6361 21.8237 50.6257 25.1464C50.6504 28.5783 49.9903 31.9807 48.6839 35.1543C47.3776 38.328 45.4513 41.2092 43.0179 43.6292L27.6054 59.0136C27.3059 59.3179 26.9492 59.5598 26.5558 59.7256C26.1624 59.8913 25.7401 59.9775 25.3132 59.9792ZM25.3132 2.79173C19.3651 2.77803 13.6517 5.11089 9.41317 9.28392C7.31334 11.3571 5.64808 13.8282 4.51482 16.5527C3.38156 19.2772 2.80306 22.2003 2.81317 25.1511C2.79066 28.212 3.37896 31.2467 4.54362 34.0774C5.70829 36.9082 7.42592 39.4782 9.59598 41.637L25.0038 57.0214C25.0436 57.0627 25.0913 57.0955 25.144 57.1179C25.1968 57.1403 25.2535 57.1519 25.3108 57.1519C25.3681 57.1519 25.4249 57.1403 25.4776 57.1179C25.5304 57.0955 25.5781 57.0627 25.6179 57.0214L41.0304 41.637C43.2004 39.4782 44.918 36.9082 46.0827 34.0774C47.2474 31.2467 47.8357 28.212 47.8132 25.1511C47.8233 22.2003 47.2448 19.2772 46.1115 16.5527C44.9783 13.8282 43.313 11.3571 41.2132 9.28392C36.9746 5.11089 31.2612 2.77803 25.3132 2.79173Z" fill="white"/>
<path d="M25.3132 38.1401C22.3587 38.1388 19.4962 37.1133 17.2129 35.2384C14.9296 33.3635 13.3669 30.755 12.7908 27.8573C12.2148 24.9596 12.661 21.9518 14.0535 19.3462C15.446 16.7405 17.6987 14.6981 20.428 13.5668C23.1572 12.4355 26.1942 12.2853 29.0218 13.1417C31.8493 13.9981 34.2926 15.8082 35.9355 18.2637C37.5784 20.7192 38.3193 23.6683 38.032 26.6087C37.7448 29.5491 36.4471 32.299 34.36 34.3901C33.1732 35.58 31.7631 36.5238 30.2106 37.1673C28.6581 37.8108 26.9938 38.1414 25.3132 38.1401ZM25.3132 15.4105C23.008 15.4141 20.7755 16.2168 18.9957 17.6817C17.216 19.1466 15.9991 21.1832 15.5523 23.4446C15.1056 25.706 15.4566 28.0524 16.5456 30.0841C17.6346 32.1157 19.3942 33.7071 21.5248 34.587C23.6553 35.4669 26.025 35.5811 28.2303 34.91C30.4356 34.2389 32.34 32.8241 33.6192 30.9065C34.8985 28.9889 35.4734 26.6872 35.2461 24.3933C35.0187 22.0994 34.0032 19.9553 32.3725 18.3261C31.4455 17.3996 30.3448 16.6651 29.1334 16.1648C27.922 15.6644 26.6238 15.4081 25.3132 15.4105Z" fill="white"/>
</svg>
