<svg width="35" height="22" viewBox="0 0 35 22" fill="none" xmlns="http://www.w3.org/2000/svg">
<path fill-rule="evenodd" clip-rule="evenodd" d="M34.2157 17.5027C33.4225 15.92 32.3773 14.4743 31.1204 13.221C30.6926 12.7284 30.1911 12.2422 29.7996 11.8628L29.7449 11.8098C29.5429 11.6139 29.3761 11.4514 29.2396 11.3114C30.9582 8.9438 32.4292 6.40869 33.6294 3.74502L33.6778 3.63755L33.7118 3.52476C33.8695 3.00049 34.0512 2.00353 33.4085 1.10256C32.7442 0.17133 31.6805 0.00338184 30.9683 0.00338184H27.6912C27.0082 -0.0276362 26.3316 0.155323 25.7585 0.527294C25.181 0.902067 24.7393 1.44873 24.4962 2.08776C23.7905 3.75307 22.9075 5.33707 21.8632 6.81325V3.0089C21.8632 2.51713 21.8165 1.69449 21.2849 1.00016C20.6485 0.168816 19.7282 0.00338184 19.0893 0.00338184H13.8896C13.2196 -0.011961 12.5681 0.225334 12.0674 0.668313C11.5547 1.12195 11.2404 1.75563 11.1913 2.43497L11.1867 2.49932V2.56384C11.1867 3.26522 11.4672 3.78258 11.6914 4.10796C11.7917 4.25363 11.8991 4.38624 11.9669 4.46999L11.9825 4.48932C12.0548 4.57864 12.103 4.63825 12.1515 4.7035C12.2789 4.87516 12.4621 5.13984 12.5139 5.82472V7.95272C11.6175 6.49288 10.6719 4.55023 9.96035 2.47543L9.94942 2.44359L9.93732 2.41217C9.75991 1.95186 9.47536 1.28209 8.90546 0.769544C8.23969 0.170781 7.45222 0.00338184 6.73606 0.00338184H3.41114C2.68663 0.00338184 1.81319 0.171302 1.16147 0.852369C0.520584 1.52212 0.447998 2.32465 0.447998 2.75135V2.94368L0.488888 3.1317C1.40983 7.36633 3.30744 11.3319 6.03262 14.7183C7.26815 16.6485 8.94232 18.2664 10.9219 19.4423C12.9331 20.637 15.2021 21.3412 17.5418 21.4969L17.6028 21.501H17.664C18.7225 21.501 19.826 21.4105 20.6558 20.8627C21.7752 20.1237 21.8632 18.9888 21.8632 18.4232V16.7792C22.1505 17.0092 22.5069 17.319 22.9432 17.7352C23.4707 18.2582 23.8907 18.7114 24.2509 19.1069L24.4431 19.3187L24.4443 19.3199C24.724 19.6285 24.9993 19.9323 25.25 20.182C25.5651 20.4957 25.9536 20.8416 26.442 21.097C26.9708 21.3737 27.5259 21.4988 28.1155 21.4988H31.4427C32.1435 21.4988 33.1489 21.3345 33.8558 20.5228C34.626 19.638 34.5673 18.5536 34.325 17.7743L34.2814 17.6342L34.2157 17.5027ZM25.875 17.6553C25.5005 17.244 25.0489 16.7564 24.4781 16.1911L24.4734 16.1864C22.4958 14.2975 21.5716 13.9684 20.9183 13.9684C20.5708 13.9684 20.1862 14.0071 19.9367 14.315C19.8189 14.4603 19.757 14.6357 19.7223 14.8184C19.6876 15.0009 19.6757 15.2152 19.6757 15.4592V18.4232C19.6757 18.7913 19.6146 18.9459 19.4428 19.0594C19.2138 19.2105 18.7245 19.333 17.6763 19.3339C15.6865 19.1995 13.7573 18.5998 12.0468 17.5838C10.3328 16.5657 8.8875 15.1587 7.82989 13.4788L7.81838 13.4606L7.80476 13.4437C5.26541 10.3125 3.49596 6.63949 2.63593 2.71477C2.6406 2.52557 2.68197 2.41333 2.74901 2.34326C2.81809 2.27106 2.98548 2.17045 3.41114 2.17045H6.73606C7.10593 2.17045 7.29735 2.25016 7.43511 2.37406C7.5913 2.51453 7.72677 2.75307 7.89134 3.17898C8.70744 5.55695 9.81104 7.7808 10.8561 9.41593C11.3785 10.2332 11.8925 10.9135 12.3557 11.3942C12.5869 11.6343 12.8137 11.8331 13.03 11.9745C13.2395 12.1113 13.4769 12.2193 13.7211 12.2193C13.85 12.2193 14.0007 12.2061 14.1458 12.1424C14.3019 12.0741 14.4231 11.9599 14.5086 11.8069C14.66 11.5365 14.7014 11.1359 14.7014 10.611V5.7514L14.7007 5.74C14.6251 4.55773 14.2648 3.89269 13.914 3.4199C13.8371 3.31629 13.7612 3.2227 13.6949 3.1408L13.6767 3.11836C13.6039 3.02836 13.5459 2.95563 13.4983 2.88647C13.411 2.75975 13.3771 2.67141 13.3744 2.57674C13.3858 2.46437 13.4392 2.3601 13.5245 2.28466C13.613 2.20636 13.7288 2.16559 13.8474 2.17045H19.0893C19.3898 2.17045 19.491 2.2431 19.5419 2.30964C19.6138 2.40357 19.6757 2.59894 19.6757 3.0089V9.55145C19.6757 10.3286 20.0373 10.8547 20.5625 10.8547C21.1668 10.8547 21.6024 10.4915 22.3642 9.7368L22.3769 9.72423L22.3883 9.71037C24.0957 7.64775 25.4912 5.34975 26.5298 2.88861L26.5364 2.87016C26.6146 2.65269 26.7623 2.46651 26.9573 2.34001C27.1521 2.21352 27.3834 2.15367 27.6158 2.1696L27.6285 2.17045H30.9683C31.4237 2.17045 31.5736 2.2853 31.622 2.35321C31.6735 2.42546 31.7094 2.58032 31.6219 2.88401C30.4244 5.5371 28.9437 8.05544 27.2055 10.3967L27.1945 10.4132C27.0258 10.6689 26.8407 10.9518 26.8139 11.2766C26.7852 11.6253 26.9376 11.9425 27.204 12.2822C27.3983 12.5667 27.7989 12.9552 28.2053 13.3493L28.2437 13.3864C28.6698 13.7996 29.1313 14.2472 29.5019 14.6806L29.5118 14.692L29.5226 14.7027C30.6273 15.7944 31.5459 17.0563 32.2426 18.4392C32.3538 18.8157 32.2857 19.0081 32.1992 19.1074C32.0982 19.2235 31.8716 19.3317 31.4427 19.3317H28.1155C27.8556 19.3317 27.6551 19.281 27.4635 19.1808C27.2638 19.0763 27.0585 18.9102 26.8009 18.6537C26.5936 18.4471 26.3669 18.1972 26.0904 17.8925C26.0219 17.817 25.9503 17.7378 25.875 17.6553Z" fill="#B67929"/>
</svg>
